<svg width="83" height="83" viewBox="0 0 83 83" fill="none" xmlns="http://www.w3.org/2000/svg">
<path d="M62.5107 5.375L76.9423 20.4188V77.6265H23.0312V77.8132H77.1265V20.6081L62.5107 5.375Z" fill="#909090"/>
<path d="M62.3323 5.1875H22.8477V77.6257H76.9429V20.4206L62.3323 5.1875Z" fill="#F4F4F4"/>
<path d="M22.4491 9.07812H5.875V26.7857H58.0094V9.07812H22.4491Z" fill="#7A7B7C"/>
<path d="M58.2857 26.4842H6.21094V8.76367H58.2857V26.4842Z" fill="#DD2025"/>
<path d="M23.4799 11.7599H20.0898V24.2099H22.7562V20.0106L23.345 20.0444C23.9173 20.0365 24.4843 19.9339 25.0232 19.7409C25.4968 19.5801 25.9322 19.3231 26.3019 18.9861C26.681 18.6682 26.9789 18.2645 27.1708 17.8085C27.4334 17.053 27.5264 16.2489 27.4431 15.4534C27.4283 14.885 27.3287 14.322 27.1474 13.783C26.9841 13.3935 26.7413 13.0423 26.4344 12.752C26.1276 12.4617 25.7635 12.2386 25.3655 12.0971C25.0224 11.97 24.6668 11.8796 24.3047 11.8274C24.0311 11.7828 23.7544 11.7603 23.4773 11.7599M22.9871 17.71H22.7562V13.8712H23.2568C23.4777 13.8553 23.6994 13.8892 23.9055 13.9705C24.1116 14.0517 24.2967 14.1783 24.4473 14.3407C24.7594 14.7583 24.9261 15.2667 24.922 15.788C24.922 16.4261 24.922 17.0045 24.3462 17.4117C23.9315 17.6401 23.4592 17.7455 22.9871 17.71ZM32.5087 11.7262C32.2208 11.7262 31.9407 11.747 31.7436 11.7547L31.1263 11.7703H29.1031V24.2203H31.4842C32.394 24.2437 33.2997 24.0895 34.1506 23.7664C34.8356 23.4959 35.442 23.058 35.9143 22.4929C36.3772 21.9252 36.7077 21.2616 36.8818 20.5501C37.0864 19.7459 37.1857 18.9185 37.1775 18.0887C37.2282 17.1086 37.1524 16.1261 36.9518 15.1655C36.7598 14.4592 36.4044 13.8079 35.9143 13.2643C35.5299 12.8247 35.0571 12.4711 34.5267 12.2268C34.0723 12.0162 33.5942 11.8612 33.1027 11.7651C32.9072 11.7331 32.7094 11.7183 32.5113 11.721M32.0393 21.9326H31.7799V13.9854H31.8136C32.3483 13.9235 32.8894 14.02 33.3698 14.2629C33.7217 14.5439 34.0084 14.8978 34.2102 15.3004C34.428 15.724 34.5535 16.189 34.5785 16.6647C34.6019 17.2353 34.5785 17.7022 34.5785 18.0887C34.5881 18.5338 34.5595 18.979 34.4929 19.4193C34.4113 19.8707 34.2636 20.3077 34.0546 20.7161C33.8184 21.097 33.4959 21.4169 33.1131 21.6499C32.7933 21.8574 32.4142 21.954 32.0341 21.9248M45.2103 11.7703H38.9075V24.2203H41.5739V19.2818H44.9458V16.9682H41.5739V14.0839H45.2051V11.7703" fill="#464648"/>
<path d="M56.4962 52.5363C56.4962 52.5363 64.7651 51.0371 64.7651 53.8617C64.7651 56.6863 59.6425 55.5373 56.4962 52.5363ZM50.3828 52.7516C49.0688 53.0411 47.7884 53.4662 46.5622 54.0199L47.5997 51.6855C48.6372 49.3512 49.7136 46.1686 49.7136 46.1686C50.9485 48.2543 52.3892 50.2111 54.014 52.0098C52.7908 52.192 51.5786 52.4414 50.3828 52.7568V52.7516ZM47.1095 35.8922C47.1095 33.4307 47.9057 32.759 48.5256 32.759C49.1455 32.759 49.8433 33.0572 49.8666 35.1945C49.6643 37.3435 49.2144 39.462 48.5256 41.5077C47.579 39.7913 47.0904 37.86 47.1069 35.9L47.1095 35.8922ZM35.0511 63.1681C32.5144 61.6507 40.3709 56.9794 41.7949 56.829C41.7871 56.8316 37.7071 64.7555 35.0511 63.1681ZM67.1799 54.1963C67.1539 53.9369 66.9205 51.0656 61.8108 51.1875C59.6809 51.1502 57.5519 51.3004 55.4484 51.6363C53.4094 49.5839 51.6542 47.2679 50.2297 44.7499C51.1267 42.1543 51.6702 39.4498 51.8456 36.7092C51.7704 33.5967 51.026 31.8122 48.6398 31.8382C46.2535 31.8641 45.906 33.9521 46.2198 37.0594C46.527 39.1475 47.1069 41.1863 47.9446 43.1236C47.9446 43.1236 46.8423 46.5551 45.3846 49.9685C43.9269 53.3819 42.9309 55.1716 42.9309 55.1716C40.3957 55.9958 38.0094 57.2218 35.863 58.8028C33.7257 60.7922 32.8568 62.3199 33.9825 63.8476C34.9525 65.1653 38.3478 65.4636 41.3825 61.4873C42.9921 59.4316 44.4651 57.2724 45.7918 55.0237C45.7918 55.0237 50.4191 53.7554 51.8586 53.4078C53.2981 53.0602 55.0385 52.7853 55.0385 52.7853C55.0385 52.7853 59.2638 57.0365 63.3385 56.886C67.4133 56.7356 67.2162 54.4505 67.1903 54.2015" fill="#DD2025"/>
<path d="M62.1289 5.38672V20.6198H76.7395L62.1289 5.38672Z" fill="#909090"/>
<path d="M62.332 5.1875V20.4206H76.9426L62.332 5.1875Z" fill="#F4F4F4"/>
<path d="M23.2807 11.5607H19.8906V24.0107H22.5674V19.814L23.1588 19.8477C23.731 19.8398 24.2981 19.7373 24.8369 19.5443C25.3106 19.3834 25.7459 19.1265 26.1156 18.7895C26.4919 18.4707 26.787 18.0671 26.9767 17.6119C27.2394 16.8564 27.3323 16.0523 27.2491 15.2568C27.2343 14.6884 27.1346 14.1254 26.9534 13.5864C26.7901 13.1969 26.5472 12.8457 26.2404 12.5554C25.9336 12.2651 25.5695 12.042 25.1715 11.9005C24.8268 11.7722 24.4695 11.6809 24.1055 11.6281C23.8319 11.5836 23.5552 11.561 23.2781 11.5607M22.7878 17.5108H22.557V13.672H23.0602C23.2811 13.6561 23.5028 13.69 23.7089 13.7713C23.9149 13.8525 24.1001 13.979 24.2507 14.1415C24.5628 14.5591 24.7295 15.0675 24.7254 15.5888C24.7254 16.2269 24.7254 16.8053 24.1496 17.2125C23.7348 17.4409 23.2626 17.5437 22.7904 17.5082M32.3095 11.527C32.0216 11.527 31.7415 11.5477 31.5443 11.5555L30.9348 11.5711H28.9117V24.0211H31.2928C32.2026 24.0445 33.1083 23.8903 33.9591 23.5672C34.6442 23.2966 35.2506 22.8588 35.7229 22.2936C36.1857 21.726 36.5162 21.0623 36.6903 20.3509C36.8949 19.5467 36.9943 18.7193 36.986 17.8895C37.0368 16.9094 36.961 15.9269 36.7604 14.9663C36.5684 14.26 36.213 13.6087 35.7229 13.0651C35.3385 12.6255 34.8656 12.2719 34.3352 12.0276C33.8809 11.817 33.4027 11.6619 32.9113 11.5659C32.7158 11.5339 32.5179 11.5191 32.3199 11.5218M31.8478 21.7334H31.5884V13.7861H31.6222C32.1569 13.7243 32.698 13.8208 33.1784 14.0637C33.5303 14.3446 33.817 14.6986 34.0188 15.1012C34.2365 15.5248 34.3621 15.9898 34.3871 16.4655C34.4104 17.0361 34.3871 17.503 34.3871 17.8895C34.3967 18.3346 34.368 18.7798 34.3015 19.22C34.2199 19.6715 34.0722 20.1085 33.8632 20.5169C33.627 20.8978 33.3044 21.2177 32.9216 21.4507C32.6018 21.6582 32.2227 21.7548 31.8426 21.7256M45.0111 11.5711H38.7083V24.0211H41.3747V19.0826H44.7465V16.769H41.3747V13.8847H45.0059V11.5711" fill="white"/>
</svg>
