<svg width="53" height="53" viewBox="0 0 53 53" fill="none" xmlns="http://www.w3.org/2000/svg">
<path d="M18.2188 9.9375V4.96875C18.2188 4.52949 18.3932 4.10821 18.7039 3.7976C19.0145 3.487 19.4357 3.3125 19.875 3.3125H33.125C33.5643 3.3125 33.9855 3.487 34.2961 3.7976C34.6068 4.10821 34.7812 4.52949 34.7812 4.96875V9.9375H48.0312C48.4705 9.9375 48.8918 10.112 49.2024 10.4226C49.513 10.7332 49.6875 11.1545 49.6875 11.5938C49.6875 12.033 49.513 12.4543 49.2024 12.7649C48.8918 13.0755 48.4705 13.25 48.0312 13.25H4.96875C4.52949 13.25 4.10821 13.0755 3.7976 12.7649C3.487 12.4543 3.3125 12.033 3.3125 11.5938C3.3125 11.1545 3.487 10.7332 3.7976 10.4226C4.10821 10.112 4.52949 9.9375 4.96875 9.9375H18.2188ZM21.5312 9.9375H31.4688V6.625H21.5312V9.9375ZM9.9375 49.6875C9.49824 49.6875 9.07696 49.513 8.76635 49.2024C8.45575 48.8918 8.28125 48.4705 8.28125 48.0312V13.25H44.7188V48.0312C44.7188 48.4705 44.5443 48.8918 44.2336 49.2024C43.923 49.513 43.5018 49.6875 43.0625 49.6875H9.9375ZM21.5312 39.75C21.9705 39.75 22.3918 39.5755 22.7024 39.2649C23.013 38.9543 23.1875 38.533 23.1875 38.0938V21.5312C23.1875 21.092 23.013 20.6707 22.7024 20.3601C22.3918 20.0495 21.9705 19.875 21.5312 19.875C21.092 19.875 20.6707 20.0495 20.3601 20.3601C20.0495 20.6707 19.875 21.092 19.875 21.5312V38.0938C19.875 38.533 20.0495 38.9543 20.3601 39.2649C20.6707 39.5755 21.092 39.75 21.5312 39.75ZM31.4688 39.75C31.908 39.75 32.3293 39.5755 32.6399 39.2649C32.9505 38.9543 33.125 38.533 33.125 38.0938V21.5312C33.125 21.092 32.9505 20.6707 32.6399 20.3601C32.3293 20.0495 31.908 19.875 31.4688 19.875C31.0295 19.875 30.6082 20.0495 30.2976 20.3601C29.987 20.6707 29.8125 21.092 29.8125 21.5312V38.0938C29.8125 38.533 29.987 38.9543 30.2976 39.2649C30.6082 39.5755 31.0295 39.75 31.4688 39.75Z" fill="#FF0000"/>
</svg>
