<svg width="16" height="20" viewBox="0 0 16 20" fill="none" xmlns="http://www.w3.org/2000/svg">
<g clip-path="url(#clip0_208_538)">
<path d="M1.58125 13.4031C1.44813 14.2744 2.0425 14.8787 2.77 15.18C5.55938 16.3362 9.44063 16.3362 12.23 15.18C12.9575 14.8787 13.5519 14.2737 13.4188 13.4031C13.3375 12.8675 12.9331 12.4219 12.6338 11.9862C12.2419 11.4087 12.2031 10.7794 12.2025 10.1094C12.2031 7.52062 10.0981 5.42188 7.5 5.42188C4.90188 5.42188 2.79688 7.52062 2.79688 10.1094C2.79688 10.7794 2.75813 11.4094 2.36563 11.9862C2.06688 12.4219 1.66313 12.8675 1.58125 13.4031Z" stroke="#1A3D1C" stroke-linecap="round" stroke-linejoin="round"/>
<path d="M5 16.0469C5.28625 17.125 6.2975 17.9219 7.5 17.9219C8.70312 17.9219 9.71312 17.125 10 16.0469" stroke="#1A3D1C" stroke-linecap="round" stroke-linejoin="round"/>
</g>
<circle cx="11.5" cy="4.5" r="4.5" fill="#FF0000"/>
<path d="M10.255 5.97875C10.6783 5.63875 11.01 5.36042 11.25 5.14375C11.49 4.92375 11.6917 4.69542 11.855 4.45875C12.0217 4.21875 12.105 3.98375 12.105 3.75375C12.105 3.53708 12.0517 3.36708 11.945 3.24375C11.8417 3.11708 11.6733 3.05375 11.44 3.05375C11.2133 3.05375 11.0367 3.12542 10.91 3.26875C10.7867 3.40875 10.72 3.59708 10.71 3.83375H10.27C10.2833 3.46042 10.3967 3.17208 10.61 2.96875C10.8233 2.76542 11.0983 2.66375 11.435 2.66375C11.7783 2.66375 12.05 2.75875 12.25 2.94875C12.4533 3.13875 12.555 3.40042 12.555 3.73375C12.555 4.01042 12.4717 4.28042 12.305 4.54375C12.1417 4.80375 11.955 5.03375 11.745 5.23375C11.535 5.43042 11.2667 5.66042 10.94 5.92375H12.66V6.30375H10.255V5.97875Z" fill="white"/>
<defs>
<clipPath id="clip0_208_538">
<rect width="15" height="15" fill="white" transform="translate(0 4.17188)"/>
</clipPath>
</defs>
</svg>
