<svg width="15" height="15" viewBox="0 0 15 15" fill="none" xmlns="http://www.w3.org/2000/svg">
<g clip-path="url(#clip0_208_530)">
<path d="M12.4294 7.83207L13.2769 8.58676C13.4334 8.71736 13.538 8.89968 13.5717 9.10071C13.6054 9.30174 13.566 9.50819 13.4607 9.68269L12.4388 11.4283C12.3595 11.5619 12.2463 11.6722 12.1107 11.748C11.9734 11.8239 11.8194 11.8642 11.6625 11.8652C11.5653 11.8658 11.4685 11.8512 11.3757 11.8221L10.291 11.4639C10.101 11.5858 9.90347 11.6949 9.69847 11.7911L9.47066 12.8908C9.4285 13.0931 9.31587 13.2739 9.15285 13.4008C8.98776 13.5301 8.78309 13.5983 8.57347 13.5939H6.45753C6.24792 13.5983 6.04325 13.5301 5.87816 13.4008C5.71548 13.2737 5.6032 13.093 5.56128 12.8908L5.33253 11.7911C5.13022 11.6936 4.93393 11.584 4.74472 11.463L3.65628 11.8221C3.56348 11.8512 3.46669 11.8658 3.36941 11.8652C3.2129 11.8641 3.05917 11.8238 2.92222 11.748C2.7867 11.6725 2.67351 11.5625 2.5941 11.4293L1.53566 9.68269C1.42562 9.50662 1.38358 9.29645 1.41741 9.09159C1.45123 8.88673 1.55861 8.70124 1.71941 8.56988L2.56597 7.50019V7.16832L1.71847 6.41363C1.56197 6.28303 1.4574 6.10071 1.42369 5.89968C1.38999 5.69865 1.42937 5.4922 1.53472 5.31769L2.59316 3.57207C2.67244 3.43844 2.78564 3.32816 2.92128 3.25238C3.05823 3.1766 3.21196 3.13632 3.36847 3.13519C3.46488 3.12911 3.56165 3.13797 3.65535 3.16144L4.72222 3.53644C4.91285 3.41457 5.11035 3.30551 5.31472 3.20926L5.54347 2.10957C5.58538 1.90741 5.69767 1.72669 5.86035 1.59957C6.02543 1.47033 6.23011 1.40211 6.43972 1.40644H8.53785C8.74746 1.40211 8.95213 1.47033 9.11722 1.59957C9.28129 1.72801 9.39378 1.90894 9.4341 2.10957L9.66285 3.20926C9.86597 3.30613 10.0619 3.41551 10.2507 3.53738L11.34 3.17926C11.4609 3.13993 11.5887 3.12612 11.7152 3.1387C11.8417 3.15129 11.9642 3.19 12.075 3.25238C12.211 3.32926 12.3235 3.43988 12.4032 3.57113L13.4607 5.31769C13.5722 5.49228 13.6164 5.70147 13.585 5.90624C13.5536 6.11101 13.4487 6.29736 13.29 6.43051L12.4294 7.16363V7.83207Z" stroke="#3C2720"/>
<path d="M9.84375 7.5C9.84375 8.1216 9.59682 8.71774 9.15728 9.15728C8.71774 9.59682 8.1216 9.84375 7.5 9.84375C6.8784 9.84375 6.28226 9.59682 5.84272 9.15728C5.40318 8.71774 5.15625 8.1216 5.15625 7.5C5.15625 6.8784 5.40318 6.28226 5.84272 5.84272C6.28226 5.40318 6.8784 5.15625 7.5 5.15625C8.1216 5.15625 8.71774 5.40318 9.15728 5.84272C9.59682 6.28226 9.84375 6.8784 9.84375 7.5Z" stroke="#3C2720"/>
</g>
<defs>
<clipPath id="clip0_208_530">
<rect width="15" height="15" fill="white"/>
</clipPath>
</defs>
</svg>
